<?xml version="1.0" encoding="UTF-8" standalone="no"?>
<!-- Created with Inkscape (http://www.inkscape.org/) -->

<svg
   width="150mm"
   height="150mm"
   viewBox="0 0 150 150"
   version="1.1"
   id="svg1"
   inkscape:version="1.4 (e7c3feb1, 2024-10-09)"
   sodipodi:docname="logo_aardvark.svg"
   inkscape:export-filename="logo_aardvark.png"
   inkscape:export-xdpi="96"
   inkscape:export-ydpi="96"
   xmlns:inkscape="http://www.inkscape.org/namespaces/inkscape"
   xmlns:sodipodi="http://sodipodi.sourceforge.net/DTD/sodipodi-0.dtd"
   xmlns:xlink="http://www.w3.org/1999/xlink"
   xmlns="http://www.w3.org/2000/svg"
   xmlns:svg="http://www.w3.org/2000/svg">
  <sodipodi:namedview
     id="namedview1"
     pagecolor="#ffffff"
     bordercolor="#000000"
     borderopacity="0.25"
     inkscape:showpageshadow="2"
     inkscape:pageopacity="0.0"
     inkscape:pagecheckerboard="0"
     inkscape:deskcolor="#d1d1d1"
     inkscape:document-units="mm"
     inkscape:zoom="1.32"
     inkscape:cx="238.63636"
     inkscape:cy="294.31818"
     inkscape:window-width="1920"
     inkscape:window-height="950"
     inkscape:window-x="0"
     inkscape:window-y="25"
     inkscape:window-maximized="1"
     inkscape:current-layer="layer1" />
  <defs
     id="defs1">
    <linearGradient
       id="linearGradient5"
       inkscape:collect="always">
      <stop
         style="stop-color:#005496;stop-opacity:1;"
         offset="0"
         id="stop6" />
      <stop
         style="stop-color:#1383c6;stop-opacity:0.99000001;"
         offset="1"
         id="stop7" />
    </linearGradient>
    <linearGradient
       id="swatch1"
       inkscape:swatch="solid">
      <stop
         style="stop-color:#005496;stop-opacity:1;"
         offset="0"
         id="stop1" />
    </linearGradient>
    <linearGradient
       inkscape:collect="always"
       xlink:href="#linearGradient5"
       id="linearGradient7"
       x1="26.566147"
       y1="124.49747"
       x2="125.56109"
       y2="25.502525"
       gradientUnits="userSpaceOnUse" />
  </defs>
  <g
     inkscape:label="Layer 1"
     inkscape:groupmode="layer"
     id="layer1">
    <path
       style="fill:url(#linearGradient7);fill-opacity:1;stroke-width:0.271039"
       d="M 70.099785,144.8218 C 52.103464,143.27614 35.304141,134.73201 23.702771,121.22428 14.484384,110.49111 8.3966899,96.908623 6.3913728,82.600155 5.8946237,79.055732 5.9791015,68.416938 6.5326839,64.803733 7.7945261,56.567743 10.514034,48.581982 14.535108,41.304808 19.940015,31.523241 28.209687,22.637575 37.789485,16.318259 46.012101,10.894212 56.28741,7.1616702 67.2608,5.6127071 75.792945,4.4083434 84.508159,4.9778939 93.622765,7.3354959 105.19027,10.327566 114.53108,15.338649 123.31106,23.262433 c 11.70465,10.563244 19.3642,24.38923 22.2611,40.182794 0.41078,2.239505 0.4971,4.077896 0.49118,10.46049 -0.007,7.239606 -0.0562,8.025216 -0.7613,12.07316 -2.50333,14.372383 -8.87938,27.155963 -18.55784,37.207253 -10.03773,10.4244 -21.61752,17.02066 -35.345897,20.13426 -6.046244,1.3713 -15.255142,2.02047 -21.298518,1.50141 z m 5.26542,-7.8135 c -0.0041,-0.11208 -0.632907,-0.63068 -1.397936,-1.15245 -0.765038,-0.52178 -2.606351,-2.11122 -4.091802,-3.53212 -1.485463,-1.42089 -2.81216,-2.54984 -2.948227,-2.50878 -0.136067,0.0411 -0.178865,-0.0368 -0.09514,-0.17293 0.0837,-0.13618 -0.449363,-1.0039 -1.184694,-1.92829 -7.420707,-9.32857 -13.405372,-23.16403 -14.623289,-33.80635 -0.83832,-7.325445 0.286767,-16.350863 2.879126,-23.096139 0.511546,-1.331039 0.88219,-2.468199 0.823656,-2.52702 -0.168124,-0.168946 -3.369283,0.989399 -5.44746,1.971179 -2.517249,1.189214 -7.353618,4.145582 -9.86771,6.031908 -4.126586,3.096211 -9.415742,8.9984 -12.407308,13.845376 -1.937798,3.13966 -2.670819,4.693321 -4.250088,9.008194 l -1.42984,3.906612 0.953413,1.90248 c 3.066177,6.1184 8.96969,13.49245 14.294849,17.85568 7.550723,6.18676 16.504789,10.65475 25.550815,12.7496 2.264726,0.52446 7.769647,1.30302 10.409598,1.47223 0.743539,0.0476 1.686491,0.10868 2.095437,0.13562 0.408947,0.0269 0.740411,-0.0427 0.736569,-0.1548 z m -3.62421,-1.39565 c -0.08155,-0.1325 0.06336,-0.4076 0.322013,-0.61132 0.415356,-0.32721 0.431041,-0.31996 0.134566,0.0621 -0.184599,0.23791 -0.25558,0.513 -0.157733,0.61133 0.0979,0.0984 0.103981,0.17878 0.01359,0.17878 -0.09034,0 -0.230972,-0.10842 -0.312457,-0.24092 z m 23.781145,-1.53592 c 14.51478,-4.76128 26.63509,-14.78987 34.79429,-28.78953 2.26047,-3.87856 5.00375,-11.030807 6.25708,-16.313426 4.27934,-18.036696 0.62602,-35.901348 -10.34824,-50.602566 C 115.66541,24.2251 100.64443,15.422043 83.483546,13.322372 79.406789,12.823573 70.714726,12.947365 66.584861,13.563045 54.663724,15.340247 44.65025,20.012726 35.341358,28.141861 27.935356,34.609262 22.140581,42.501005 18.496173,51.082829 c -1.485106,3.497116 -3.293542,9.799136 -3.859401,13.449203 -0.70798,4.56682 -0.722543,15.932486 -0.02523,19.698329 0.466182,2.517645 1.682112,7.094422 2.085203,7.848723 0.136345,0.255144 0.70852,-0.534985 1.770764,-2.44531 5.68656,-10.226585 12.342723,-17.244092 21.890587,-23.078968 3.875228,-2.368214 6.897676,-3.816251 11.626307,-5.570078 1.933208,-0.71702 3.558611,-1.336117 3.612016,-1.375775 0.05344,-0.03966 -0.144355,-0.415374 -0.439472,-0.834924 -1.999663,-2.84292 -3.842557,-8.163796 -3.846603,-11.106075 -0.0041,-2.894907 1.301794,-5.489877 3.153751,-6.267456 1.554533,-0.652702 4.450153,-0.46845 7.202951,0.458333 1.354198,0.455914 2.628544,0.967682 2.831882,1.137256 0.432,0.360284 0.858278,-0.131349 0.865094,-0.997732 0.002,-0.289239 0.268689,-0.808868 0.592031,-1.15473 1.115542,-1.193246 3.196232,-0.623144 5.931995,1.625349 3.551952,2.919305 6.45315,8.343347 7.382307,13.801846 0.159008,0.934105 0.233741,0.991616 1.716565,1.32097 4.188013,0.930212 8.445586,2.621635 15.903205,6.317951 10.437685,5.173358 15.113355,6.631497 24.261095,7.565998 4.42378,0.451919 5.64701,0.668677 6.51012,1.153601 1.74086,0.978072 2.19321,1.822761 2.18611,4.082222 -0.008,2.664337 -1.08781,4.824353 -3.94401,7.892047 -3.38265,3.633158 -6.5222,5.073398 -15.44593,7.085735 -6.03301,1.36047 -8.42161,2.087332 -10.75121,3.271678 -4.635351,2.356565 -7.623023,5.478758 -9.812843,10.254688 -1.532765,3.34291 -1.934446,5.60555 -1.942048,10.93953 -0.0072,4.93354 0.294747,7.00426 1.658113,11.37742 0.892735,2.86355 2.972609,7.2341 3.442573,7.2341 0.20155,0 1.313066,-0.31051 2.470045,-0.69003 z m -12.275952,-1.38919 c -0.869059,-1.58722 -2.465029,-7.40332 -2.985137,-10.87862 -0.427239,-2.85473 -0.35773,-8.30048 0.143363,-11.23184 1.184449,-6.92903 4.030751,-12.406752 8.832396,-16.997991 4.60727,-4.405377 8.200687,-6.063844 19.08385,-8.807705 4.06871,-1.025792 8.02437,-2.173211 8.79037,-2.549807 0.76598,-0.376595 2.06053,-1.288505 2.87673,-2.026457 l 1.48405,-1.341739 -0.94633,-0.151848 C 120.005,78.618043 118.66664,78.473027 117.55131,78.379332 110.20205,77.761949 103.48839,75.57969 93.35239,70.513543 86.463698,67.070454 83.056001,65.683089 79.292673,64.789442 77.387811,64.337111 75.64256,64.281089 75.64256,64.672278 c 0,0.151854 -0.422628,0.47862 -0.939162,0.726144 -1.763327,0.844976 -2.673234,-0.08205 -3.517297,-3.5834 -0.611488,-2.53661 -2.527294,-6.491865 -3.907091,-8.066349 -2.38762,-2.724498 -5.925568,-5.078224 -7.798169,-5.187969 -0.997205,-0.05844 -1.00818,-0.04779 -1.088614,1.056909 -0.124019,1.703337 0.887157,3.627677 3.954118,7.524946 3.848576,4.890492 5.133398,7.857374 4.856369,11.214244 -0.145202,1.759555 -0.544032,2.288501 -1.725527,2.288501 -0.679148,0 -1.125781,-0.231833 -1.782213,-0.925105 l -0.875947,-0.925105 -0.835529,1.400581 c -1.076056,1.803784 -1.502139,2.910497 -2.526681,6.562909 -1.106192,3.943497 -1.488844,7.717946 -1.308396,12.905802 0.313306,9.006832 3.426356,18.552564 8.816405,27.034254 4.647143,7.31266 8.83616,11.65474 15.437208,16.00131 1.072928,0.70649 1.236465,0.70408 0.844154,-0.0124 z M 81.702099,79.111308 c -1.396372,-0.878474 -2.003975,-1.87121 -2.002841,-3.272397 0.001,-1.587159 0.787346,-2.924637 2.024067,-3.4439 2.49447,-1.047347 4.71364,0.148614 5.366289,2.892033 0.207446,0.872034 -0.754635,2.867489 -1.713407,3.553757 -1.075934,0.770115 -2.690921,0.88902 -3.674108,0.270507 z"
       id="path1" />
    <path
       style="fill:#676f7f;fill-opacity:1;stroke:#ffffff;stroke-width:4.62963;stroke-linecap:round;stroke-linejoin:round"
       d="m 258.76356,515.75405 c -6.893,-0.91418 -16.05967,-2.38071 -20.37037,-3.25895 -39.03167,-7.95208 -81.25871,-30.4059 -110.49482,-58.75454 -16.56124,-16.05851 -33.933933,-39.0378 -42.68241,-56.45706 l -4.010808,-7.986 4.569305,-12.47282 c 8.326073,-22.72767 17.340103,-38.78881 31.636343,-56.3694 8.25343,-10.14953 24.07734,-25.79981 32.12624,-31.77373 8.98169,-6.66625 25.18815,-16.62055 35.17791,-21.6069 8.67028,-4.32774 21.30373,-9.08796 21.30329,-8.02697 -1.5e-4,0.371 -1.49067,4.84121 -3.31225,9.9338 -11.51642,32.19633 -14.3197,69.46923 -7.66027,101.85185 9.36804,45.55364 40.13269,103.90441 68.15372,129.26592 6.36441,5.76036 9.18875,8.90145 8.56481,9.52539 -1.20377,1.20377 -1.20735,4.26425 -0.005,4.26425 0.50926,0 0.92593,-0.60041 0.92593,-1.33424 0,-2.72999 1.93438,-2.34728 6.54112,1.29413 l 4.73628,3.74381 -6.33315,-0.0882 c -3.48323,-0.0485 -11.97288,-0.83617 -18.86588,-1.75035 z"
       id="path8"
       transform="scale(0.26458333)" />
    <path
       style="fill:#9ba7ba;fill-opacity:1;stroke:#ffffff;stroke-width:4.62963;stroke-linecap:round;stroke-linejoin:round;stroke-opacity:1"
       d="m 305.14693,496.46334 c -19.45331,-13.8048 -33.37813,-28.50347 -48.40306,-51.09297 -34.84831,-52.39332 -45.55109,-112.8611 -28.94773,-163.54669 2.74966,-8.39397 6.15018,-15.74026 9.05327,-19.5582 0.66845,-0.8791 1.75287,-0.37401 4.47286,2.08333 5.49261,4.96225 10.97101,4.10041 12.49343,-1.96541 0.31776,-1.26605 0.39588,-5.76701 0.17359,-10.00214 -0.34848,-6.63933 -0.91986,-8.76896 -4.14727,-15.45741 -2.05871,-4.26645 -8.21901,-13.78973 -13.68956,-21.16285 -12.86248,-17.33585 -16.47732,-24.54207 -14.86277,-29.62908 1.66549,-5.2475 16.08074,1.2865 27.81906,12.60953 8.75744,8.44762 14.5265,18.97884 19.78995,36.12585 1.58772,5.17239 3.66112,10.36064 4.60756,11.52945 2.31072,2.85361 7.08809,2.67113 11.80588,-0.45096 3.43551,-2.27352 3.91435,-2.34512 9.61468,-1.43767 11.08271,1.76428 27.67527,8.15323 55.12044,21.22406 47.30602,22.52963 61.68676,27.23845 94.81345,31.04565 6.84932,0.78719 12.57666,1.55461 12.72743,1.70536 0.39391,0.39392 -10.87883,9.374 -13.46566,10.72701 -4.10049,2.14471 -12.67132,4.77334 -34.89341,10.70161 -43.53093,11.61292 -56.17495,17.5457 -73.20125,34.3472 -20.86988,20.59434 -31.71127,45.13883 -33.70046,76.29655 -0.4064,6.36574 -0.38189,16.41094 0.0545,22.32267 0.99909,13.53533 5.81134,34.45997 10.51299,45.71261 0.81474,1.94994 1.36598,3.66071 1.22498,3.80171 -0.141,0.141 -4.17879,-2.52714 -8.97287,-5.92921 z m 15.13113,-196.82805 c 3.43638,-1.43582 7.18862,-5.95368 8.69779,-10.47255 1.42135,-4.25588 -0.21967,-9.23555 -4.43155,-13.44742 -3.24773,-3.24772 -3.87475,-3.49285 -8.92611,-3.48964 -9.4953,0.006 -14.55429,5.04923 -14.6019,14.55626 -0.0512,10.21971 9.81229,16.80159 19.26177,12.85335 z"
       id="path9"
       transform="scale(0.26458333)" />
    <path
       style="fill:#009ca2;fill-opacity:1;stroke:none;stroke-width:1.0706;stroke-linecap:round;stroke-linejoin:round;stroke-opacity:1"
       d="m 81.628992,78.573469 c -0.957313,-0.571861 -1.446202,-1.574672 -1.432898,-2.939175 0.01853,-1.900093 1.288402,-3.002626 3.459113,-3.003264 1.057314,-2.79e-4 1.164515,0.05219 1.995823,0.977435 1.339443,1.490801 1.359947,2.724969 0.07012,4.22117 -1.055053,1.223856 -2.767495,1.535131 -4.092153,0.743834 z"
       id="path11" />
    <path
       style="fill:#00ff00;fill-opacity:1;stroke:#676f7f;stroke-width:1.32292;stroke-linecap:round;stroke-linejoin:round;stroke-opacity:1"
       d="m 68.987201,134.1248 c 3.666281,2.13867 3.666281,2.13867 3.666281,2.13867"
       id="path13" />
    <path
       style="fill:#ffffff;fill-opacity:1;stroke:#ffffff;stroke-width:1.14319;stroke-linecap:round;stroke-linejoin:round;stroke-opacity:1"
       d="m 71.474167,134.0791 c 3.458669,2.75581 3.458669,2.75581 3.458669,2.75581"
       id="path12" />
    <path
       style="fill:#ffffff;fill-opacity:1;stroke:#ffffff;stroke-width:1.23232;stroke-linecap:round;stroke-linejoin:round;stroke-opacity:1"
       d="m 68.63638,136.46259 5.895541,0.45723"
       id="path14" />
    <path
       style="fill:#ffffff;fill-opacity:1;stroke:none;stroke-width:3.78788;stroke-linecap:round;stroke-linejoin:round;stroke-opacity:1"
       d="m 350.93145,508.16105 c -1.29426,-1.56437 -6.73718,-12.78257 -9.14098,-18.84012 -2.80777,-7.07559 -6.67455,-20.77848 -7.6635,-27.1576 -2.18592,-14.09991 -1.5818,-39.89292 1.18983,-50.79969 3.51275,-13.82325 11.11444,-26.89052 21.81508,-37.5 12.84441,-12.735 23.91866,-18.08533 50.82267,-24.55409 40.91788,-9.83824 50.0106,-13.25587 62.30518,-23.41828 5.68162,-4.6963 14.6162,-15.94332 17.51599,-22.04946 2.34411,-4.93603 2.7386,-6.59254 3.00151,-12.60394 0.39697,-9.0762 -1.10035,-12.84752 -6.31386,-15.90284 -4.54819,-2.66542 -9.36542,-3.74064 -23.47852,-5.24049 -37.47331,-3.98242 -51.77225,-8.3493 -94.31818,-28.80469 -30.38392,-14.60809 -40.80415,-18.82888 -57.13624,-23.14346 -4.54993,-1.202 -8.52536,-2.59442 -8.83429,-3.09428 -0.30894,-0.49987 -0.79215,-2.47176 -1.07381,-4.38199 -0.85458,-5.79564 -5.43741,-18.99664 -9.05833,-26.09285 -8.16201,-15.99575 -20.08942,-28.08864 -31.62378,-32.06255 -6.13742,-2.11452 -11.32205,0.70159 -12.27611,6.66794 -0.58152,3.63664 -0.0501,3.6562 -11.29819,-0.41571 -14.24026,-5.15508 -27.06368,-5.3787 -33.04256,-0.57621 -1.49122,1.19781 -3.89039,4.48495 -5.35366,7.33512 -2.64449,5.15094 -2.65137,5.19092 -2.59783,15.08453 0.0493,9.11382 0.25713,10.53552 2.55722,17.49567 2.99524,9.06367 7.35031,18.69377 10.57089,23.37471 l 2.34615,3.41001 -6.24883,2.39963 c -16.20146,6.22157 -19.63569,7.60412 -26.70336,10.75022 -15.96049,7.10463 -37.42045,20.57467 -52.42894,32.9087 -19.51247,16.03542 -36.902168,36.63828 -50.416761,59.73249 -7.565788,12.92868 -9.722797,16.28788 -10.458769,16.28788 -1.689593,0 -8.023859,-26.65266 -9.02655,-37.98098 -0.987072,-11.15185 -0.989769,-40.8936 -0.0048,-53.38628 2.031976,-25.7733 11.563995,-56.58493 25.404254,-82.11759 16.888266,-31.15566 43.947266,-61.27202 74.594076,-83.022366 28.40154,-20.156859 61.10899,-33.305942 95.96462,-38.579804 12.17676,-1.842415 37.76962,-2.770077 52.63382,-1.907812 56.01292,3.249284 108.40423,26.935444 149.18395,67.446192 57.61543,57.23542 80.99728,133.25386 65.01246,211.36682 -4.18312,20.4416 -14.11912,48.38702 -23.16114,65.14162 -4.89903,9.07778 -14.72332,23.86042 -22.66279,34.1008 -8.38069,10.80946 -28.3612,31.03212 -38.95157,39.42362 -21.37771,16.9391 -49.77839,32.20995 -73.10606,39.30865 -2.91667,0.88755 -5.8515,1.78222 -6.52184,1.98814 -0.67034,0.20593 -1.57772,-0.0594 -2.01641,-0.58966 z"
       id="path15"
       transform="scale(0.26458333)" />
  </g>
</svg>
